<svg viewBox="0 0 123456 123456" xmlns="http://www.w3.org/2000/svg">
<path d="M31385.1 37.1401C35850.4 10.8484 40315.8 19.6752 44781 63.6248L73498 65.2648C78163.2 74.7274 82827.6 59.3408 87492.7 19.1138C93592.3 4.16584 99523.4 -292.369 105255 2106.03C108856 3612.37 111859 5363.52 114690 8083.21C118959 12149.1 121809 17479.6 122819 23288.4C123137 25155.5 123244 27094.3 123279 28986.3C123344 34672.5 123358 40359 123322 46045.4L123321 74542.9L123340 87898.5C123356 92048.6 123575 96951.3 122706 100956C121536 106135 118959 110891 115261 114701C110896 119206 105155 122130 98944.6 123011C96536.6 123349 94624.4 123342 92205.5 123381L36186.6 123385C31581.5 123386 26853.1 123558 22341.7 122562C17369.9 121469 12791.5 119037 9100.8 115531C5450.98 112098 1922.59 106364 946.056 101430C-377.615 94741.9 74.2854 86897.8 74.8248 80046.9L75.5922 38486.1C76.2673 33022.9 -171.829 27139.5 1035.26 21814.3C2138.56 17095.4 4476.97 12754.9 7810.78 9237.66C11015.4 5779.11 15032.2 3174.71 19497.4 1660.34C23658.5 223.66 27013.2 169.887 31385.1 37.1401Z" fill="#333333"/>
<path d="M33319.7 3973.71C37500 3949.11 41680.3 3957.37 45860.4 3998.51L72744.1 4000.05C77111.4 4008.9 81478 3994.51 85845.3 3956.84C91555.4 3942.85 97107.8 3665.24 102474 5910.53C105844 7320.69 108656 8960.06 111306 11506.1C115303 15312.4 117971 20302.7 118916 25740.6C119214 27488.5 119314 29303.6 119347 31074.7C119408 36397.8 119421 41721.4 119388 47044.7L119386 73722.9L119404 86225.9C119419 90110.9 119625 94700.8 118811 98449.2C117715 103298 115303 107750 111841 111317C107754 115534 102380 118271 96566.2 119097C94311.8 119413 92521.7 119406 90257.1 119443L37814.6 119446C33503.7 119448 29077 119609 24853.6 118677C20199.4 117653 15913.2 115377 12458.1 112094C9041.29 108880 5738.16 103513 4823.97 98893.6C3584.81 92632.2 4007.86 85289 4008.36 78875.5L4009.07 39968C4009.72 34853.5 3777.46 29345.9 4907.48 24360.5C5940.34 19943.1 8129.47 15879.6 11250.4 12586.9C14250.4 9349.11 18010.9 6910.98 22191 5493.3C26086.3 4148.34 29226.9 4098 33319.7 3973.71Z" fill="#191919"/>
<path d="M83629.1 65880.7C83634.7 66770.9 83364.2 67641.1 82854.8 68371.2C82345.6 69101.5 81622.4 69656 80785.2 69958.3L66707.3 75160.4L61521.7 89249C61214.6 90083.3 60659.1 90803.3 59929.9 91311.9C59200.7 91820.5 58333.1 92093.1 57444.1 92093.1C56555.2 92093.1 55687.6 91820.5 54958.4 91311.9C54229.2 90803.3 53673.7 90083.3 53366.6 89249L48148.2 75160.4L34059.5 69974.6C33225.2 69667.5 32505.3 69112 31996.7 68382.8C31488.1 67653.7 31215.4 66786.2 31215.4 65897C31215.4 65008.1 31488.1 64140.5 31996.7 63411.4C32505.3 62682.2 33225.2 62126.5 34059.5 61819.6L48148.2 56601L53333.8 42512.4C53640.9 41678.1 54196.6 40958.1 54925.6 40449.5C55654.8 39940.9 56522.4 39668.3 57411.4 39668.3C58300.5 39668.3 59168.1 39940.9 59897.1 40449.5C60626.3 40958.1 61181.8 41678.1 61488.9 42512.4L66707.3 56601L80796.1 61786.8C81634 62091.9 82356.5 62649.6 82864.1 63383C83371.6 64116.3 83638.8 64989 83629.1 65880.7ZM68345.1 39679.4H72711.9V44046.2C72711.9 44625.3 72941.9 45180.7 73351.3 45590.2C73760.8 45999.7 74316.2 46229.8 74895.3 46229.8C75474.4 46229.8 76029.8 45999.7 76439.3 45590.2C76848.7 45180.7 77078.7 44625.3 77078.7 44046.2V39679.4H81445.7C82024.7 39679.4 82580.1 39449.4 82989.5 39040C83399 38630.5 83629.1 38075.1 83629.1 37496C83629.1 36916.9 83399 36361.5 82989.5 35952C82580.1 35542.6 82024.7 35312.6 81445.7 35312.6H77078.7V30945.6C77078.7 30366.6 76848.7 29811.2 76439.3 29401.8C76029.8 28992.3 75474.4 28762.2 74895.3 28762.2C74316.2 28762.2 73760.8 28992.3 73351.3 29401.8C72941.9 29811.2 72711.9 30366.6 72711.9 30945.6V35312.6H68345.1C67766 35312.6 67210.6 35542.6 66801.1 35952C66391.6 36361.5 66161.5 36916.9 66161.5 37496C66161.5 38075.1 66391.6 38630.5 66801.1 39040C67210.6 39449.4 67766 39679.4 68345.1 39679.4ZM92362.8 48413.2H90179.4V46229.8C90179.4 45650.7 89949.4 45095.3 89539.9 44685.8C89130.5 44276.4 88575.1 44046.2 87996 44046.2C87416.9 44046.2 86861.5 44276.4 86452 44685.8C86042.5 45095.3 85812.5 45650.7 85812.5 46229.8V48413.2H83629.1C83050 48413.2 82494.6 48643.2 82085.2 49052.7C81675.7 49462.1 81445.7 50017.5 81445.7 50596.6C81445.7 51175.7 81675.7 51731.1 82085.2 52140.6C82494.6 52550.1 83050 52780.1 83629.1 52780.1H85812.5V54963.5C85812.5 55542.6 86042.5 56098 86452 56507.4C86861.5 56916.9 87416.9 57146.9 87996 57146.9C88575.1 57146.9 89130.5 56916.9 89539.9 56507.4C89949.4 56098 90179.4 55542.6 90179.4 54963.5V52780.1H92362.8C92941.9 52780.1 93497.3 52550.1 93906.8 52140.6C94316.2 51731.1 94546.4 51175.7 94546.4 50596.6C94546.4 50017.5 94316.2 49462.1 93906.8 49052.7C93497.3 48643.2 92941.9 48413.2 92362.8 48413.2Z" fill="white"/>
</svg>